<svg width="1068" height="178" viewBox="0 0 1068 178" fill="none" xmlns="http://www.w3.org/2000/svg">
<path d="M1040.65 0C1055.45 0.00027196 1067.48 12.3675 1067.48 27.5938V150.403C1067.48 165.63 1055.45 177.997 1040.65 177.997H715.637C700.834 177.997 688.811 165.63 688.811 150.403V27.5938C688.811 12.3673 700.834 0 715.637 0L1040.65 0ZM104.04 153.429L173.562 0L208.08 0V177.531H186.878V20.8115L115.869 177.531H92.2109L21.2021 21.0449V177.531H0L0 0L34.5186 0L104.04 153.429ZM266.541 138.235C266.541 151.667 271.971 157.02 284.802 157.02H378.241V177.531H274.427C258.17 177.531 245.339 164.1 245.339 147.345V0L266.541 0V138.235ZM511.148 153.429L580.67 0L615.188 0V177.531H593.986V20.8115L522.978 177.531H499.319L428.311 21.0449V177.531H407.108V0L441.627 0L511.148 153.429ZM715.637 8.74316C705.52 8.74316 697.311 17.1879 697.311 27.5938V150.403C697.311 160.809 705.52 169.254 715.637 169.254H1040.65C1050.77 169.254 1058.98 160.809 1058.98 150.403V27.5938C1058.98 17.1881 1050.77 8.74344 1040.65 8.74316H715.637Z" fill="black"/>
<path fill-rule="evenodd" clip-rule="evenodd" d="M855.472 45.3286C865.119 45.3286 872.94 53.1492 872.94 62.7964V115.2C872.94 124.847 865.119 132.667 855.472 132.667H791.181V45.3286H855.472ZM801.848 121.022H855.472C855.84 121.022 856.2 120.987 856.55 120.921H861.69V56.9738L801.848 56.9738V121.022Z" fill="black"/>
<path d="M963.764 56.9745L897.623 56.9738V83.7256H900.824C901.214 83.8397 901.626 83.9033 902.053 83.9033L953.575 83.904C962.418 83.904 969.587 91.0728 969.587 99.9161V116.656C969.587 125.499 962.418 132.668 953.575 132.668L891.863 132.667V122.273L958.365 122.274V95.5221L901.153 95.5214C892.728 95.0547 886.041 88.0775 886.041 79.5363V61.3407C886.041 52.4975 893.209 45.3286 902.053 45.3286L963.764 45.3293V56.9745Z" fill="black"/>
</svg>
