<svg width="2522" height="568" viewBox="0 0 2522 568" fill="none" xmlns="http://www.w3.org/2000/svg">
<path d="M936.788 128.765C1020.41 128.765 1085.04 196.961 1085.04 284.867C1085.04 372.774 1020.99 439.099 937.513 439.099C903.022 440.393 869.691 426.438 846.359 401.116V567.146H742.742L742.598 567.29V138.403H846.214V170.487C868.821 141.569 897.37 128.765 936.788 128.765ZM1236.77 128.342C1269.23 127.622 1301.4 134.096 1331.26 147.045L1296.51 213.602C1279.15 204.575 1259.91 199.847 1240.25 199.56C1221.41 199.56 1208.51 208.479 1208.51 220.133C1208.51 232.938 1216.19 236.822 1255.17 245.167C1313.29 256.677 1340.53 284.3 1340.53 331.347C1340.53 397.528 1285.46 440.547 1200.68 440.547C1159.24 440.403 1118.66 428.749 1083.59 407.168L1121.12 334.513C1148.37 352.497 1180.11 364.15 1203.87 364.15C1222.71 364.15 1236.19 354.51 1236.19 340.986C1236.19 327.462 1227.2 322.427 1192.13 314.658C1129.96 301.853 1106.05 279.265 1106.05 233.657C1106.05 168.77 1155.9 128.342 1236.77 128.342ZM1534.72 127.609C1638.34 127.609 1711.53 192.496 1711.53 283.712C1711.53 376.366 1638.34 440.534 1533.42 440.534C1428.5 440.534 1358.65 374.928 1358.65 281.123C1359.08 237.529 1378.36 196.381 1411.69 168.038C1440.82 142.86 1487.48 127.609 1534.72 127.609ZM2281.8 127.609C2385.42 127.609 2458.46 192.496 2458.46 283.712L2458.59 285.879C2457.46 377.366 2384.6 440.534 2280.5 440.534C2175.58 440.534 2105.73 374.928 2105.73 281.123C2106.16 237.529 2125.44 196.381 2158.77 168.038C2187.9 142.86 2234.56 127.609 2281.8 127.609ZM509.57 128.914C544.061 127.619 577.537 141.575 600.869 166.896V138.697H704.342V429.609H600.725V397.525C577.972 426.444 549.568 439.249 510.15 439.249C426.677 439.249 361.898 371.197 361.898 283.146C361.898 195.096 425.952 128.914 509.57 128.914ZM2079.19 429.607H1975.57V397.524C1952.96 426.443 1924.56 439.247 1884.99 439.247C1801.38 439.247 1736.74 371.195 1736.74 283.145C1736.74 195.094 1800.8 128.912 1884.41 128.912C1918.9 127.617 1952.24 141.574 1975.57 166.896V0.865234H2079.19V429.607ZM123.53 429.902H0.0595703V409.473H123.53V429.902ZM206.258 0.865234C319.005 0.865363 349.872 82.7297 349.872 133.373C349.872 174.521 334.656 207.468 310.02 228.617C295.093 241.566 280.891 248.615 254.95 254.37L391.029 429.896H246.979L144.087 266.455V194.95H164.666C216.112 194.95 236.69 164.449 236.69 139.847C236.69 115.244 226.401 82.585 164.666 82.585H144.087V0.865234H206.258ZM123.537 389.03H41.2227V368.601H123.537V389.03ZM536.67 217.54C500.15 217.684 470.587 246.891 470.008 283.146C469.428 319.834 499.137 350.048 536.091 350.623C573.045 351.198 603.478 321.704 604.058 285.017C604.637 248.329 574.929 218.116 537.975 217.54H536.67ZM909.544 217.534C872.879 217.822 843.171 247.316 842.881 283.716L842.738 284.574C843.058 320.869 872.733 350.331 909.398 350.617C946.353 350.761 976.496 321.123 976.786 284.436C977.076 247.748 947.077 217.822 910.123 217.534H909.544ZM1911.37 217.538C1874.85 217.682 1845.29 246.889 1844.71 283.145L1844.85 284.004C1844.88 320.303 1874.27 350.049 1910.93 350.478C1947.89 350.909 1978.32 321.559 1978.76 284.871C1979.19 248.183 1949.63 217.97 1912.67 217.538H1911.37ZM1534.72 216.235C1498.06 216.667 1468.5 246.018 1468.06 282.418C1467.92 319.105 1497.63 349.174 1534.72 349.318C1571.68 349.462 1601.97 319.968 1602.11 283.137C1602.26 246.449 1572.55 216.379 1535.45 216.235H1534.72ZM2281.95 216.235C2245.28 216.523 2215.72 246.018 2215.29 282.418C2215.14 319.105 2244.85 349.031 2281.95 349.175C2318.9 349.319 2349.05 319.825 2349.19 282.993C2349.34 246.306 2319.63 216.379 2282.53 216.235H2281.95ZM123.537 348.172H41.2227V327.741H123.537V348.172ZM123.537 307.312H41.2227V286.883H123.537V307.312ZM123.537 266.454H41.2227V246.024H123.537V266.454ZM123.53 225.596H0.0595703V205.165H123.53V225.596ZM1296.62 213.658L1296.33 213.946L1296.51 213.602C1296.55 213.621 1296.58 213.639 1296.62 213.658ZM123.537 184.743H41.2227V164.313H123.537V184.743ZM123.537 143.871H41.2227V123.441H123.537V143.871ZM123.537 103.013H41.2227V82.583H123.537V103.013ZM2482.43 0.865234C2488.06 0.865262 2493.59 1.91253 2498.69 4.18066C2505.54 7.1467 2511.34 12.1188 2515.3 18.3125C2519.43 24.5936 2521.62 31.8345 2521.62 39.3369L2521.54 39.4238C2521.71 60.7096 2504.49 78.0704 2483.05 78.2451C2461.61 78.4196 2444.12 61.3208 2443.95 40.0352V39.3369C2443.95 33.6665 2445.09 28.0832 2447.64 23.0234C2450.1 17.8766 2453.61 13.3403 2458.01 9.76367C2464.86 4.00602 2473.47 0.865234 2482.43 0.865234ZM2482.61 6.36133L2482.52 6.44824C2473.91 6.361 2465.65 9.85077 2459.76 16.1318C2453.52 22.2384 2450.1 30.6135 2450.27 39.25C2450.1 48.0608 2453.52 56.523 2459.76 62.7168C2472.07 75.366 2492.28 75.7151 2505.02 63.502C2505.28 63.2404 2505.54 62.9784 2505.81 62.7168C2512.05 56.523 2515.47 48.0608 2515.3 39.25C2515.3 34.0158 2513.98 28.7811 2511.61 24.0703C2509.41 19.4468 2505.98 15.4341 2501.85 12.3809C2496.23 8.36804 2489.55 6.27417 2482.61 6.36133ZM123.537 62.1543H41.2227V41.7236H123.537V62.1543ZM2477.87 17.2656C2482.7 16.9167 2487.44 18.0512 2491.57 20.5811C2494.74 22.9365 2496.49 26.6877 2496.41 30.6133C2496.41 33.4048 2495.53 36.1088 2493.86 38.377C2492.28 40.5578 2489.99 42.2158 2487.36 43.001L2486.74 43.1748L2486.56 43.0879L2501.15 61.6699H2490.69L2477.43 44.0479V61.6699H2468.9V17.2656H2477.87ZM2477.34 36.8945H2478.74C2484.89 36.8944 2487.97 34.8005 2487.97 30.6133C2487.97 26.6877 2484.98 24.7687 2479.1 24.7686H2477.34V36.8945ZM123.53 21.2949H0.0595703V0.865234H123.53V21.2949Z" fill="black"/>
</svg>
