<svg width="2288" height="294" viewBox="0 0 2288 294" fill="none" xmlns="http://www.w3.org/2000/svg">
<g clip-path="url(#clip0_4828_2891)">
<path d="M62.4014 218.406H0V208.006H62.4014V218.406ZM62.4014 187.199V197.6H20.7998V187.199H62.4014ZM62.4014 176.802H20.7998V166.401H62.4014V176.802ZM62.4014 156.003H20.7998V145.604H62.4014V156.003ZM62.4014 135.201H20.7998V124.801H62.4014V135.201ZM62.4014 114.403H0V104.003H62.4014V114.403ZM62.4014 93.6055H20.7998V83.2051H62.4014V93.6055ZM62.4014 72.7988H20.7998V62.3984H62.4014V72.7988ZM62.4014 52H20.7998V41.6006H62.4014V52ZM62.4014 31.1982H20.7998V20.7979H62.4014V31.1982ZM62.4014 10.4004H0V0H62.4014V10.4004Z" fill="white"/>
<path d="M473.43 65.1064C515.689 65.1067 548.354 99.8232 548.354 144.573C548.354 189.323 515.982 223.087 473.796 223.087C456.365 223.746 439.518 216.641 427.727 203.751V288.271H375.359L375.286 288.345V70.0137H427.653V86.3467C439.079 71.6253 453.508 65.1064 473.43 65.1064ZM625.037 64.8926C641.443 64.5264 657.703 67.8215 672.79 74.4131L655.229 108.295C646.455 103.7 636.735 101.293 626.795 101.146C617.274 101.146 610.755 105.688 610.755 111.62C610.755 118.138 614.637 120.116 634.339 124.364C663.708 130.224 677.478 144.286 677.478 168.235C677.477 201.926 649.646 223.825 606.8 223.825C585.853 223.752 565.345 217.819 547.621 206.833L566.591 169.847C580.36 179.002 596.4 184.934 608.411 184.934C617.932 184.934 624.744 180.027 624.744 173.143C624.744 166.258 620.203 163.694 602.479 159.739C571.059 153.221 558.974 141.722 558.974 118.505C558.974 85.4733 584.169 64.8926 625.037 64.8926ZM775.62 64.5205C827.987 64.5205 864.975 97.5516 864.975 143.986C864.975 191.153 827.987 223.819 774.961 223.819C721.935 223.819 686.633 190.421 686.633 142.668C686.853 120.476 696.594 99.529 713.439 85.1006C728.161 72.2837 751.744 64.5206 775.62 64.5205ZM1153.18 64.5205C1205.54 64.5206 1242.46 97.5517 1242.46 143.986L1242.52 145.089C1241.95 191.662 1205.13 223.819 1152.52 223.819C1099.49 223.819 1064.19 190.421 1064.19 142.668C1064.41 120.476 1074.15 99.529 1091 85.1006C1105.72 72.2834 1129.3 64.5205 1153.18 64.5205ZM257.516 65.1846C274.947 64.5254 291.866 71.6292 303.658 84.5195V70.165H355.952V218.258H303.585V201.925C292.086 216.646 277.73 223.165 257.809 223.165C215.622 223.165 182.884 188.521 182.884 143.698C182.884 98.8752 215.256 65.1848 257.516 65.1846ZM1050.79 218.258H998.421V201.925C986.995 216.646 972.64 223.165 952.646 223.165C910.386 223.165 877.72 188.522 877.72 143.698C877.72 98.875 910.093 65.1846 952.353 65.1846C969.784 64.5255 986.629 71.6293 998.421 84.5195V0H1050.79V218.258ZM104.222 0C161.203 0 176.804 41.6743 176.804 67.4551C176.804 88.4018 169.113 105.174 156.662 115.94C149.118 122.532 141.941 126.121 128.831 129.051L197.604 218.404H124.803L72.8018 135.202V98.8018H83.2021C109.202 98.8017 119.602 83.2751 119.603 70.751C119.603 58.2268 114.403 41.6007 83.2021 41.6006H72.8018V0H104.222ZM271.212 110.301C252.755 110.374 237.815 125.242 237.521 143.698C237.229 162.375 252.243 177.756 270.919 178.049C289.595 178.342 304.977 163.327 305.27 144.65C305.562 125.974 290.547 110.594 271.871 110.301H271.212ZM459.66 110.296C441.13 110.442 426.115 125.457 425.969 143.987L425.903 144.859C426.295 163.135 441.202 177.9 459.587 178.044C478.263 178.117 493.497 163.03 493.644 144.354C493.79 125.677 478.629 110.442 459.953 110.296H459.66ZM965.975 110.301C947.518 110.374 932.577 125.242 932.284 143.698L932.358 144.571C932.606 162.852 947.37 177.759 965.755 177.976C984.431 178.195 999.813 163.254 1000.03 144.577C1000.25 125.901 985.31 110.521 966.634 110.301H965.975ZM775.62 109.637C757.09 109.857 742.149 124.797 741.93 143.327C741.856 162.003 756.871 177.31 775.62 177.384C794.297 177.457 809.604 162.443 809.678 143.693C809.751 125.017 794.736 109.71 775.986 109.637H775.62ZM1153.25 109.637C1134.72 109.783 1119.78 124.797 1119.56 143.327C1119.49 162.004 1134.5 177.237 1153.25 177.311C1171.93 177.384 1187.16 162.37 1187.23 143.62C1187.31 124.944 1172.29 109.71 1153.54 109.637H1153.25ZM655.285 108.324L655.139 108.471L655.229 108.295C655.248 108.305 655.267 108.314 655.285 108.324ZM1254.58 0C1257.43 0 1260.23 0.532871 1262.8 1.6875C1266.26 3.19742 1269.2 5.72877 1271.19 8.88184C1273.28 12.0793 1274.39 15.7658 1274.39 19.585L1274.35 19.6289C1274.44 30.4648 1265.73 39.3028 1254.9 39.3916C1244.06 39.4802 1235.22 30.7752 1235.13 19.9395V19.585C1235.13 16.6984 1235.71 13.856 1237 11.2803C1238.24 8.66012 1240.02 6.35008 1242.24 4.5293C1245.7 1.59842 1250.06 3.72302e-05 1254.58 0ZM1254.63 2.8418C1250.28 2.79739 1246.1 4.5742 1243.13 7.77148C1239.97 10.8801 1238.24 15.1435 1238.33 19.54C1238.24 24.0254 1239.97 28.3333 1243.13 31.4863C1249.35 37.9254 1259.56 38.1029 1266 31.8857C1266.13 31.7525 1266.27 31.6196 1266.4 31.4863C1269.55 28.3333 1271.28 24.0253 1271.19 19.54C1271.19 16.8755 1270.53 14.2106 1269.33 11.8125C1268.22 9.45894 1266.49 7.41657 1264.4 5.8623C1261.56 3.81947 1258.18 2.75344 1254.67 2.79785L1254.63 2.8418ZM1252.28 8.34863C1254.72 8.171 1257.12 8.74826 1259.2 10.0361C1260.8 11.2352 1261.69 13.1452 1261.65 15.1436C1261.65 16.5646 1261.2 17.9411 1260.36 19.0957C1259.56 20.2059 1258.4 21.0505 1257.07 21.4502L1256.76 21.5381L1256.67 21.4941L1264.04 30.9531H1258.76L1252.05 21.9824V30.9531H1247.75V8.34863H1252.28ZM1252.01 18.3408H1252.72C1255.83 18.3408 1257.38 17.2752 1257.38 15.1436C1257.38 13.1452 1255.87 12.168 1252.9 12.168H1252.01V18.3408Z" fill="white"/>
</g>
<path d="M1623.02 105.431C1629.91 105.431 1636.87 106.276 1643.64 108.032C1650.47 109.788 1656.39 112.325 1661.33 115.643L1662.44 116.358L1654.63 135.546L1653 134.57C1648.19 131.774 1643.18 129.562 1637.98 128.131C1632.78 126.635 1627.7 125.919 1622.83 125.919C1614.96 125.919 1609.04 127.221 1605.33 129.822C1601.75 132.294 1600 135.481 1600 139.578C1600 142.31 1600.97 144.457 1602.92 146.213C1605.07 148.099 1607.8 149.594 1611.12 150.7C1614.56 151.871 1619.38 153.172 1625.43 154.668C1633.75 156.619 1640.78 158.701 1646.18 160.782L1646.31 160.978C1651.9 163.189 1656.71 166.506 1660.68 170.994C1664.71 175.547 1666.79 181.726 1666.79 189.401C1666.79 195.905 1664.97 201.889 1661.46 207.157C1657.88 212.426 1652.48 216.653 1645.39 219.775C1638.37 222.832 1629.72 224.394 1619.7 224.394C1610.92 224.394 1602.27 223.093 1594.08 220.621C1585.82 218.084 1579.18 214.702 1574.3 210.475L1573.39 209.694L1581.98 190.441L1583.6 191.742C1588.03 195.254 1593.56 198.182 1600.06 200.394C1606.56 202.67 1613.13 203.775 1619.7 203.775C1627.7 203.775 1633.69 202.475 1637.53 200.003C1641.23 197.596 1642.99 194.604 1642.99 190.767C1642.99 187.97 1642.01 185.758 1640.06 184.002C1637.92 182.116 1635.18 180.555 1631.87 179.449C1628.42 178.278 1623.61 176.977 1617.56 175.481C1608.97 173.4 1601.88 171.384 1596.55 169.303C1591.02 167.156 1586.21 163.839 1582.24 159.286C1578.21 154.668 1576.13 148.359 1576.12 140.619C1576.12 134.115 1577.95 128.13 1581.46 122.797C1584.97 117.463 1590.37 113.171 1597.39 110.049C1604.35 106.992 1613 105.431 1623.02 105.431ZM1365.32 106.926C1378.85 106.926 1389.52 109.658 1396.93 115.057C1404.54 120.585 1408.38 128.195 1408.38 137.821C1408.38 143.675 1407.01 148.944 1404.28 153.432C1402.2 156.944 1399.4 159.935 1396.02 162.212H1395.96C1400.96 164.423 1405.13 167.611 1408.31 171.773C1412.15 176.782 1414.1 183.091 1414.1 190.506C1414.1 200.718 1410.14 208.782 1402.2 214.376C1394.46 219.84 1383.14 222.637 1368.51 222.637H1311.01V106.926H1365.32ZM1556.16 222.637H1530.72L1519.47 196.62H1465.42L1454.36 222.637H1429.26L1481.29 106.926H1503.93L1556.16 222.637ZM1786.8 127.675H1723.38V153.691H1777.63V174.115H1723.38V201.889H1786.8V222.637H1699.19V106.926H1786.8V127.675ZM1873.63 106.926C1887.16 106.926 1897.83 109.658 1905.24 115.057C1912.85 120.585 1916.69 128.195 1916.69 137.821C1916.69 143.675 1915.32 148.944 1912.59 153.432C1910.51 156.944 1907.71 159.935 1904.33 162.212H1904.26C1909.27 164.423 1913.44 167.611 1916.62 171.773C1920.46 176.782 1922.41 183.091 1922.41 190.506C1922.41 200.717 1918.44 208.782 1910.51 214.376C1902.77 219.84 1891.45 222.637 1876.82 222.637H1819.32V106.926H1873.63ZM2064.46 222.637H2039.03L2027.78 196.62H1973.73L1962.67 222.637H1937.57L1989.6 106.926H2012.24L2064.46 222.637ZM2110.12 201.693H2168.92V222.637H2085.99V106.926H2110.12V201.693ZM2225.64 106.926V201.693H2284.44V222.637H2201.51V106.926H2225.64ZM1335.14 203.059H1367.27C1382.49 203.059 1389.91 198.246 1389.91 188.425C1389.91 178.603 1382.49 173.854 1367.27 173.854H1335.14V203.059ZM1843.45 203.059H1875.58C1890.8 203.059 1898.22 198.246 1898.22 188.425C1898.22 178.603 1890.8 173.854 1875.58 173.854H1843.45V203.059ZM1473.88 176.977H1511.21L1492.48 133.594L1473.88 176.977ZM1982.19 176.977H2019.52L2000.79 133.594L1982.19 176.977ZM1335.21 154.342H1363.11C1370 154.342 1375.34 153.107 1378.98 150.7V150.635C1382.43 148.293 1384.12 145.106 1384.12 140.488C1384.12 135.87 1382.43 132.552 1378.98 130.211C1375.34 127.804 1370 126.569 1363.11 126.569H1335.21V154.342ZM1843.52 154.342H1871.42C1878.31 154.342 1883.65 153.107 1887.29 150.7V150.635C1890.74 148.293 1892.43 145.106 1892.43 140.488C1892.43 135.87 1890.74 132.552 1887.29 130.211C1883.65 127.804 1878.31 126.569 1871.42 126.569H1843.52V154.342Z" fill="white"/>
<defs>
<clipPath id="clip0_4828_2891">
<rect width="1274.39" height="292.963" fill="white"/>
</clipPath>
</defs>
</svg>
